<svg xmlns="http://www.w3.org/2000/svg" width="64" height="64" viewBox="0 0 64 64">
  <defs>
    <linearGradient id="gold" x1="8" y1="8" x2="56" y2="56" gradientUnits="userSpaceOnUse">
      <stop stop-color="#F0D06A" />
      <stop offset="0.52" stop-color="#C5923A" />
      <stop offset="1" stop-color="#A67C31" />
    </linearGradient>
  </defs>
  <circle cx="32" cy="32" r="30" fill="#0D1311" stroke="url(#gold)" stroke-width="3" />
  <path d="M14 23c5-8 13-12 23-11 5 .5 9 2 13 5l-5 6c-3-2-6-3-9-3-6 0-11 2-14 7-3 5-3 11 0 16 3 5 8 7 14 7 3 0 6-.7 8-2v-8h-9v-7h17v19c-5 4-10 6-17 6-10 0-18-4-23-12-5-7-4-16 2-23Z" fill="url(#gold)" />
  <path d="M49 26v-5h5v5h5v5h-5v5h-5v-5h-5v-5h5Z" fill="#F0D06A" />
</svg>
